<svg width="16" height="14" viewBox="0 0 16 14" fill="none" xmlns="http://www.w3.org/2000/svg">
<path d="M9.41894 13.2637L9.3584 13.3252C9.29422 13.3641 9.22083 13.3864 9.14453 13.3867C9.03392 13.3871 8.92712 13.3436 8.84863 13.2656C8.77027 13.1877 8.72598 13.0812 8.72559 12.9707C8.72538 12.8879 8.74986 12.8073 8.79492 12.7393L8.84668 12.6758L13.6406 7.84277L14.0625 7.41602L0.709961 7.41601C0.599454 7.41601 0.493178 7.37208 0.415039 7.29394C0.337063 7.2159 0.293061 7.11032 0.292968 7C0.292968 6.88949 0.336898 6.78322 0.415039 6.70508C0.493178 6.62694 0.599457 6.58301 0.709961 6.58301L14.0625 6.58301L13.6406 6.15723L8.84668 1.32324L8.83398 1.30957L8.81836 1.29883C8.77044 1.2634 8.7301 1.21812 8.70117 1.16602C8.67225 1.11383 8.65505 1.05557 8.65039 0.996093C8.64574 0.936586 8.65433 0.876382 8.6748 0.820312C8.69529 0.76439 8.72772 0.713312 8.76953 0.670898C8.8113 0.628597 8.86146 0.595454 8.91699 0.574218C8.97276 0.552944 9.0332 0.544051 9.09277 0.547851C9.15221 0.551698 9.21019 0.56855 9.2627 0.596679C9.3152 0.624848 9.36135 0.66354 9.39746 0.710937L9.40723 0.724609L9.41895 0.736328L15.6514 6.99902L9.41894 13.2637Z" fill="white" stroke="white" stroke-width="0.5"/>
</svg>
