<svg width="60" height="62" viewBox="0 0 60 62" fill="none" xmlns="http://www.w3.org/2000/svg">
<path d="M59.6439 49.1721L59.7787 0.999661L12.7221 0.611755C12.2322 0.541065 11.7332 0.578951 11.2588 0.72285C10.7845 0.86675 10.3458 1.11331 9.97265 1.44582C9.59947 1.77833 9.30044 2.18905 9.09579 2.65015C8.89115 3.11126 8.78567 3.61199 8.7865 4.11846C8.78734 4.62492 8.89446 5.12529 9.10062 5.58569C9.30678 6.04608 9.60717 6.45576 9.98144 6.78699C10.3557 7.11821 10.7951 7.36325 11.27 7.50551C11.7448 7.64777 12.2439 7.68394 12.7336 7.61156L47.9952 7.95857L1.02488 55.5194C0.37369 56.1787 0.00505045 57.0759 5.15076e-05 58.0135C-0.00494743 58.9511 0.354104 59.8524 0.998227 60.519C1.64235 61.1856 2.51878 61.563 3.43471 61.5681C4.35063 61.5732 5.23103 61.2057 5.88222 60.5463L52.8526 12.9855L52.8066 49.0839C52.8049 50.0221 53.1672 50.9225 53.814 51.5872C54.4608 52.2518 55.339 52.6263 56.2555 52.6281C57.1719 52.6299 58.0515 52.2589 58.7008 51.5968C59.3501 50.9347 59.7158 50.0357 59.7176 49.0975L59.6439 49.1721Z" fill="url(#paint0_linear_697_1372)"/>
<defs>
<linearGradient id="paint0_linear_697_1372" x1="4.75606e-07" y1="61.7285" x2="60" y2="0.728518" gradientUnits="userSpaceOnUse">
<stop stop-color="#434343"/>
<stop offset="1" stop-color="#4258BE"/>
</linearGradient>
</defs>
</svg>
