<svg width="19" height="17" viewBox="0 0 19 17" fill="none" xmlns="http://www.w3.org/2000/svg">
<path d="M18.125 15.8604H17.2266V1.30566C17.2266 1.1627 17.1698 1.02558 17.0687 0.924489C16.9676 0.823395 16.8305 0.766602 16.6875 0.766602H11.6562C11.5133 0.766602 11.3762 0.823395 11.2751 0.924489C11.174 1.02558 11.1172 1.1627 11.1172 1.30566V5.0791H6.625C6.48203 5.0791 6.34492 5.1359 6.24383 5.23699C6.14273 5.33808 6.08594 5.4752 6.08594 5.61816V9.3916H2.3125C2.16953 9.3916 2.03242 9.4484 1.93133 9.54949C1.83023 9.65058 1.77344 9.7877 1.77344 9.93066V15.8604H0.875C0.732032 15.8604 0.594919 15.9171 0.493825 16.0182C0.392731 16.1193 0.335938 16.2564 0.335938 16.3994C0.335938 16.5424 0.392731 16.6795 0.493825 16.7806C0.594919 16.8817 0.732032 16.9385 0.875 16.9385H18.125C18.268 16.9385 18.4051 16.8817 18.5062 16.7806C18.6073 16.6795 18.6641 16.5424 18.6641 16.3994C18.6641 16.2564 18.6073 16.1193 18.5062 16.0182C18.4051 15.9171 18.268 15.8604 18.125 15.8604ZM12.1953 1.84473H16.1484V15.8604H12.1953V1.84473ZM7.16406 6.15723H11.1172V15.8604H7.16406V6.15723ZM2.85156 10.4697H6.08594V15.8604H2.85156V10.4697Z" fill="black"/>
</svg>
