<svg width="250" height="173" viewBox="0 0 250 173" fill="none" xmlns="http://www.w3.org/2000/svg">
<path d="M19.1565 132.447L3.55616 138.485C2.01555 139.082 1 140.564 1 142.216V170.822C1 171.375 1.44772 171.822 2 171.822H241C241.552 171.822 242 171.375 242 170.822V32.8897C242 31.922 240.762 31.5186 240.192 32.3003L224.874 53.2974C223.644 54.9827 221.326 55.4401 219.549 54.3482L210.452 48.7603C208.516 47.5707 205.978 48.2315 204.868 50.2146L193.6 70.3413C192.54 72.2353 190.163 72.938 188.243 71.9249L177.997 66.5168C176.411 65.68 174.463 66.0003 173.228 67.3005L156.276 85.1598C155.271 86.2182 153.77 86.6455 152.358 86.2748L137.058 82.2563C136.094 82.0031 135.061 82.1285 134.17 82.5747C116.669 91.3367 105.211 89.4674 99.2737 83.9139C96.9029 81.6962 92.4927 81.0476 90.5513 83.6495L80.8608 96.6373C79.9553 97.8509 78.4422 98.4492 76.9516 98.183L64.5637 95.9706C62.885 95.6708 61.2008 96.4682 60.3688 97.9567L38.9757 136.233C37.9539 138.061 35.6949 138.791 33.7961 137.907L22.2883 132.551C21.3019 132.092 20.1711 132.055 19.1565 132.447Z" fill="url(#paint0_linear_1045_554)"/>
<path d="M2 139.822L20.0785 132.786C21.0976 132.389 22.2346 132.427 23.225 132.891L34.6247 138.226C36.5405 139.123 38.8232 138.373 39.834 136.515L61.0376 97.54C61.9205 95.9172 63.7998 95.1101 65.5845 95.5873L76.1883 98.4224C77.6923 98.8245 79.293 98.3174 80.2911 97.1226L90.9726 84.3372C92.9919 81.92 97.1302 82.6692 99.2903 84.9613C105.162 91.1917 116.911 93.8607 134.501 82.4397C135.502 81.7894 136.745 81.5783 137.893 81.9097L152.632 86.1678C154.136 86.602 155.754 86.12 156.774 84.9341L172.038 67.1972C173.468 65.5356 175.969 65.3344 177.646 66.746L186.161 73.9131C188.072 75.5216 190.973 75.0046 192.211 72.8352L205.336 49.831C206.656 47.5185 209.824 47.1162 211.679 49.0255L217.659 55.1785C219.346 56.9145 222.176 56.766 223.672 54.8631L241 32.8223" stroke="white" stroke-width="4" stroke-linecap="round"/>
<path d="M242.5 1.72852L242.5 170.639" stroke="white" stroke-width="3" stroke-linecap="round"/>
<ellipse cx="242.738" cy="28.3942" rx="7.26166" ry="6.39628" fill="white"/>
<defs>
<linearGradient id="paint0_linear_1045_554" x1="121.121" y1="37.9387" x2="121.121" y2="171.822" gradientUnits="userSpaceOnUse">
<stop stop-color="white"/>
<stop offset="1" stop-color="#D9D9D9" stop-opacity="0"/>
</linearGradient>
</defs>
</svg>
