<svg width="26" height="23" viewBox="0 0 26 23" fill="none" xmlns="http://www.w3.org/2000/svg">
<path d="M22.0415 22.4206C21.2682 22.4206 20.5854 22.1786 19.9929 21.6947C19.4005 21.2108 19.0324 20.5916 18.8885 19.8373H11.7082C10.4527 19.8373 9.38532 19.3977 8.50613 18.5185C7.62693 17.6393 7.18734 16.5719 7.18734 15.3164C7.18734 14.0609 7.62693 12.9936 8.50613 12.1144C9.38532 11.2352 10.4527 10.7956 11.7082 10.7956H14.2915C15.1793 10.7956 15.9397 10.4792 16.5726 9.84624C17.2046 9.21246 17.5207 8.45081 17.5207 7.56128C17.5207 6.67175 17.2046 5.91225 16.5726 5.28278C15.9405 4.65331 15.1802 4.33814 14.2915 4.33728H7.10984C6.96345 5.09075 6.59489 5.70989 6.00417 6.1947C5.41345 6.6795 4.73145 6.92147 3.95817 6.92061C3.06089 6.92061 2.29881 6.60717 1.67192 5.98028C1.04331 5.35253 0.729004 4.59045 0.729004 3.69403C0.729004 2.79761 1.04331 2.0351 1.67192 1.40649C2.30053 0.777877 3.06262 0.463141 3.95817 0.46228C4.73145 0.46228 5.41345 0.704683 6.00417 1.18949C6.59403 1.67343 6.96302 2.29214 7.11113 3.04561H14.2915C15.547 3.04561 16.6144 3.48521 17.4935 4.3644C18.3727 5.2436 18.8123 6.31095 18.8123 7.56645C18.8123 8.82195 18.3727 9.88929 17.4935 10.7685C16.6144 11.6477 15.547 12.0873 14.2915 12.0873H11.7082C10.8204 12.0873 10.06 12.4042 9.42709 13.0379C8.79503 13.6709 8.479 14.4321 8.479 15.3216C8.479 16.2111 8.79546 16.9706 9.42838 17.6001C10.0604 18.2304 10.8204 18.5456 11.7082 18.5456H18.8898C19.0362 17.7921 19.4048 17.1734 19.9955 16.6895C20.5862 16.2055 21.2682 15.9631 22.0415 15.9623C22.9388 15.9623 23.7009 16.2762 24.3278 16.9039C24.9564 17.5308 25.2707 18.2924 25.2707 19.1889C25.2707 20.0853 24.9564 20.8478 24.3278 21.4764C23.6991 22.105 22.9371 22.4198 22.0415 22.4206ZM3.95817 5.62895C4.48948 5.62895 4.94543 5.43907 5.32605 5.05932C5.7058 4.67871 5.89567 4.22275 5.89567 3.69145C5.89567 3.16014 5.7058 2.70418 5.32605 2.32357C4.94543 1.94382 4.48948 1.75395 3.95817 1.75395C3.42687 1.75395 2.97091 1.94382 2.5903 2.32357C2.21055 2.70418 2.02067 3.16014 2.02067 3.69145C2.02067 4.22275 2.21055 4.67871 2.5903 5.05932C2.97091 5.43907 3.42687 5.62895 3.95817 5.62895Z" fill="#0C47A0"/>
</svg>
