<svg width="38" height="38" viewBox="0 0 38 38" fill="none" xmlns="http://www.w3.org/2000/svg">
<path d="M15.8333 35.9892C15.2202 35.737 14.677 35.3405 14.25 34.8333H4.75C4.33007 34.8333 3.92735 34.6665 3.63041 34.3696C3.33348 34.0727 3.16667 33.6699 3.16667 33.25V8.3125C3.16667 8.20752 3.20837 8.10684 3.2826 8.0326C3.35684 7.95837 3.45752 7.91667 3.5625 7.91667H34.4375C34.5425 7.91667 34.6432 7.95837 34.7174 8.0326C34.7916 8.10684 34.8333 8.20752 34.8333 8.3125V16.4983L38 17.8442V4.75C38 3.49022 37.4996 2.28204 36.6088 1.39124C35.718 0.500445 34.5098 0 33.25 0L4.75 0C3.49022 0 2.28204 0.500445 1.39124 1.39124C0.500445 2.28204 0 3.49022 0 4.75L0 33.25C0 34.5098 0.500445 35.718 1.39124 36.6088C2.28204 37.4996 3.49022 38 4.75 38H20.5833L15.8333 35.9892ZM16.625 2.375C17.0449 2.375 17.4477 2.54182 17.7446 2.83875C18.0415 3.13568 18.2083 3.53841 18.2083 3.95833C18.2083 4.37826 18.0415 4.78099 17.7446 5.07792C17.4477 5.37485 17.0449 5.54167 16.625 5.54167C16.2051 5.54167 15.8023 5.37485 15.5054 5.07792C15.2085 4.78099 15.0417 4.37826 15.0417 3.95833C15.0417 3.53841 15.2085 3.13568 15.5054 2.83875C15.8023 2.54182 16.2051 2.375 16.625 2.375ZM11.0833 2.375C11.5033 2.375 11.906 2.54182 12.2029 2.83875C12.4999 3.13568 12.6667 3.53841 12.6667 3.95833C12.6667 4.37826 12.4999 4.78099 12.2029 5.07792C11.906 5.37485 11.5033 5.54167 11.0833 5.54167C10.6634 5.54167 10.2607 5.37485 9.96375 5.07792C9.66682 4.78099 9.5 4.37826 9.5 3.95833C9.5 3.53841 9.66682 3.13568 9.96375 2.83875C10.2607 2.54182 10.6634 2.375 11.0833 2.375ZM5.54167 2.375C5.96159 2.375 6.36432 2.54182 6.66125 2.83875C6.95818 3.13568 7.125 3.53841 7.125 3.95833C7.125 4.37826 6.95818 4.78099 6.66125 5.07792C6.36432 5.37485 5.96159 5.54167 5.54167 5.54167C5.12174 5.54167 4.71901 5.37485 4.42208 5.07792C4.12515 4.78099 3.95833 4.37826 3.95833 3.95833C3.95833 3.53841 4.12515 3.13568 4.42208 2.83875C4.71901 2.54182 5.12174 2.375 5.54167 2.375Z" fill="#0C47A0"/>
<path d="M37.9997 21.4858C37.9994 21.175 37.9077 20.8712 37.736 20.6121C37.5642 20.3531 37.32 20.1503 37.0338 20.0291L27.5338 15.96C27.3385 15.8772 27.1285 15.8346 26.9163 15.8346C26.7042 15.8346 26.4942 15.8772 26.2988 15.96L16.7988 20.0291C16.5127 20.1503 16.2685 20.3531 16.0967 20.6121C15.925 20.8712 15.8333 21.175 15.833 21.4858V32.3475C15.8333 32.6583 15.925 32.9621 16.0967 33.2211C16.2685 33.4802 16.5127 33.6829 16.7988 33.8041L26.2988 37.8733C26.4942 37.956 26.7042 37.9987 26.9163 37.9987C27.1285 37.9987 27.3385 37.956 27.5338 37.8733L37.0338 33.8041C37.32 33.6829 37.5642 33.4802 37.736 33.2211C37.9077 32.9621 37.9994 32.6583 37.9997 32.3475V21.4858ZM26.9163 19.1425L32.3947 21.4858L26.9163 23.845L21.438 21.4858L26.9163 19.1425ZM18.9997 23.8925L25.333 26.6V34.01L18.9997 31.3025V23.8925ZM28.4997 34.01V26.6L34.833 23.8925V31.3025L28.4997 34.01Z" fill="#0C47A0"/>
</svg>
