<svg width="34" height="34" viewBox="0 0 34 34" fill="none" xmlns="http://www.w3.org/2000/svg">
<path d="M6.94994 0.828315C7.11559 0.914133 7.25447 1.04383 7.3514 1.20323C7.44834 1.36263 7.4996 1.54561 7.49958 1.73217C7.49958 3.32003 8.04651 4.24017 8.67622 5.15081C8.73594 5.23767 8.79837 5.32634 8.86351 5.41681C9.46472 6.2691 10.2139 7.32767 10.2139 8.85717C10.2139 9.48095 10.091 10.0986 9.85229 10.6749C9.61359 11.2512 9.2637 11.7749 8.82262 12.2159C8.38155 12.657 7.85791 13.0069 7.28161 13.2456C6.70532 13.4843 6.08765 13.6072 5.46387 13.6072C4.84009 13.6072 4.22242 13.4843 3.64612 13.2456C3.06982 13.0069 2.54619 12.657 2.10511 12.2159C1.66403 11.7749 1.31415 11.2512 1.07544 10.6749C0.836729 10.0986 0.713867 9.48095 0.713867 8.85717C0.713867 7.74024 0.827867 6.52289 1.59465 5.16574C2.3438 3.83981 3.66565 2.47046 5.8968 0.900243C6.04899 0.793118 6.22763 0.729769 6.41331 0.717088C6.59899 0.704406 6.7846 0.742876 6.94994 0.828315ZM10.5152 5.42903C11.6956 4.65876 13.0558 4.20811 14.4627 4.12118C15.8696 4.03425 17.2749 4.314 18.5413 4.93308C19.8076 5.55215 20.8915 6.48935 21.687 7.65297C22.4825 8.81659 22.9624 10.1668 23.0796 11.5715H19.3759C18.0262 11.5715 16.7317 12.1076 15.7773 13.0621C14.8228 14.0165 14.2867 15.311 14.2867 16.6607V20.3657C13.3415 20.2868 12.4174 20.0434 11.5561 19.6465C11.5344 20.3101 11.4882 21.0348 11.4204 21.7948C12.3413 22.1356 13.3068 22.3413 14.2867 22.4055V25.4822C14.2867 26.8319 14.8228 28.1264 15.7773 29.0808C16.7317 30.0353 18.0262 30.5715 19.3759 30.5715H28.1974C29.5471 30.5715 30.8416 30.0353 31.796 29.0808C32.7505 28.1264 33.2867 26.8319 33.2867 25.4822V16.6607C33.2867 15.311 32.7505 14.0165 31.796 13.0621C30.8416 12.1076 29.5471 11.5715 28.1974 11.5715H25.1221C25.0038 9.79671 24.4224 8.08395 23.436 6.60384C22.4496 5.12373 21.0926 3.92794 19.5001 3.13562C17.9077 2.3433 16.1354 1.98211 14.3598 2.08804C12.5843 2.19398 10.8675 2.76334 9.38058 3.73939C9.50272 3.94839 9.64115 4.15739 9.79451 4.3786C9.84608 4.4555 9.90489 4.53874 9.97094 4.62831C10.1311 4.8536 10.3224 5.1196 10.5152 5.42903ZM28.1987 13.6072C29.0086 13.6072 29.7853 13.9289 30.3579 14.5015C30.9306 15.0742 31.2523 15.8509 31.2523 16.6607V25.4822C31.2523 26.292 30.9306 27.0687 30.3579 27.6414C29.7853 28.214 29.0086 28.5357 28.1987 28.5357H19.3773C18.5674 28.5357 17.7908 28.214 17.2181 27.6414C16.6454 27.0687 16.3237 26.292 16.3237 25.4822V22.339C18.5344 22.0406 20.586 21.0247 22.1633 19.4472C23.7405 17.8697 24.7562 15.8179 25.0542 13.6072H28.1987ZM16.3237 20.2802V16.6607C16.3237 15.8509 16.6454 15.0742 17.2181 14.5015C17.7908 13.9289 18.5674 13.6072 19.3773 13.6072H22.9954C22.7129 15.2743 21.9187 16.8122 20.7231 18.0079C19.5274 19.2035 17.9908 19.9977 16.3237 20.2802ZM0.713867 18.7467C0.713867 17.3855 0.822439 15.6958 1.41415 14.3034C2.54465 15.1448 3.94658 15.6429 5.46387 15.6429C6.92421 15.645 8.34597 15.1741 9.5163 14.3007C10.1067 15.6945 10.2139 17.3868 10.2139 18.7467C10.2139 21.0036 9.85558 24.4602 9.19872 27.3645C8.87301 28.814 8.45772 30.186 7.94608 31.2188C7.6923 31.7345 7.38694 32.219 7.01372 32.5895C6.6378 32.9614 6.11801 33.2857 5.46658 33.2857C4.81515 33.2857 4.29672 32.9614 3.9208 32.5882C3.54758 32.219 3.24222 31.7345 2.98708 31.2202C2.47544 30.186 2.06015 28.814 1.73172 27.3659C1.07351 24.4602 0.713867 21.0036 0.713867 18.748" fill="#0C47A0"/>
</svg>
