<svg width="28" height="29" viewBox="0 0 28 29" fill="none" xmlns="http://www.w3.org/2000/svg">
<path d="M10.2082 8.60803C9.97611 8.60803 9.75355 8.70022 9.58945 8.86431C9.42536 9.02841 9.33317 9.25097 9.33317 9.48303C9.33317 9.7151 9.42536 9.93766 9.58945 10.1018C9.75355 10.2658 9.97611 10.358 10.2082 10.358H18.9582C19.1902 10.358 19.4128 10.2658 19.5769 10.1018C19.741 9.93766 19.8332 9.7151 19.8332 9.48303C19.8332 9.25097 19.741 9.02841 19.5769 8.86431C19.4128 8.70022 19.1902 8.60803 18.9582 8.60803H10.2082ZM8.1665 14.1497C8.1665 13.9176 8.25869 13.6951 8.42279 13.531C8.58688 13.3669 8.80944 13.2747 9.0415 13.2747H16.6248C16.8569 13.2747 17.0795 13.3669 17.2436 13.531C17.4076 13.6951 17.4998 13.9176 17.4998 14.1497C17.4998 14.3818 17.4076 14.6043 17.2436 14.7684C17.0795 14.9325 16.8569 15.0247 16.6248 15.0247H9.0415C8.80944 15.0247 8.58688 14.9325 8.42279 14.7684C8.25869 14.6043 8.1665 14.3818 8.1665 14.1497ZM11.3748 17.9414C11.1428 17.9414 10.9202 18.0336 10.7561 18.1976C10.592 18.3617 10.4998 18.5843 10.4998 18.8164C10.4998 19.0484 10.592 19.271 10.7561 19.4351C10.9202 19.5992 11.1428 19.6914 11.3748 19.6914H18.9582C19.1902 19.6914 19.4128 19.5992 19.5769 19.4351C19.741 19.271 19.8332 19.0484 19.8332 18.8164C19.8332 18.5843 19.741 18.3617 19.5769 18.1976C19.4128 18.0336 19.1902 17.9414 18.9582 17.9414H11.3748Z" fill="#0C47A0"/>
<path d="M2.3335 4.81645C2.3335 3.68945 3.24816 2.77478 4.37516 2.77478H23.6252C24.7522 2.77478 25.6668 3.68945 25.6668 4.81645V24.0664C25.6668 24.6079 25.4517 25.1272 25.0688 25.5101C24.686 25.893 24.1666 26.1081 23.6252 26.1081H4.37516C3.83368 26.1081 3.31437 25.893 2.93149 25.5101C2.5486 25.1272 2.3335 24.6079 2.3335 24.0664V4.81645ZM4.37516 4.52478C4.29781 4.52478 4.22362 4.55551 4.16892 4.61021C4.11423 4.66491 4.0835 4.73909 4.0835 4.81645V24.0664C4.0835 24.2274 4.21416 24.3581 4.37516 24.3581H23.6252C23.7025 24.3581 23.7767 24.3274 23.8314 24.2727C23.8861 24.218 23.9168 24.1438 23.9168 24.0664V4.81645C23.9168 4.73909 23.8861 4.66491 23.8314 4.61021C23.7767 4.55551 23.7025 4.52478 23.6252 4.52478H4.37516Z" fill="#0C47A0"/>
</svg>
