<svg width="43" height="43" viewBox="0 0 43 43" fill="none" xmlns="http://www.w3.org/2000/svg">
<path d="M39.7585 19.6591H34.7779C34.0728 13.6922 29.3408 8.96017 23.3738 8.25505V3.27443C23.3738 3.09509 23.2271 2.94836 23.0477 2.94836H20.6023C20.4229 2.94836 20.2762 3.09509 20.2762 3.27443V8.25505C14.3092 8.96017 9.57723 13.6922 8.87212 19.6591H3.89149C3.71216 19.6591 3.56543 19.8059 3.56543 19.9852V22.4307C3.56543 22.61 3.71216 22.7567 3.89149 22.7567H8.87212C9.57723 28.7237 14.3092 33.4557 20.2762 34.1608V39.1414C20.2762 39.3208 20.4229 39.4675 20.6023 39.4675H23.0477C23.2271 39.4675 23.3738 39.3208 23.3738 39.1414V34.1608C29.3408 33.4557 34.0728 28.7237 34.7779 22.7567H39.7585C39.9378 22.7567 40.0846 22.61 40.0846 22.4307V19.9852C40.0846 19.8059 39.9378 19.6591 39.7585 19.6591ZM21.825 31.1529C16.3308 31.1529 11.8801 26.7021 11.8801 21.2079C11.8801 15.7138 16.3308 11.263 21.825 11.263C27.3192 11.263 31.7699 15.7138 31.7699 21.2079C31.7699 26.7021 27.3192 31.1529 21.825 31.1529Z" fill="#393939"/>
<path d="M21.825 16.317C20.5167 16.317 19.294 16.8224 18.3688 17.7517C17.4436 18.6769 16.9341 19.8996 16.9341 21.208C16.9341 22.5163 17.4436 23.739 18.3688 24.6642C19.294 25.5854 20.5208 26.0989 21.825 26.0989C23.1293 26.0989 24.3561 25.5895 25.2813 24.6642C26.2024 23.739 26.716 22.5122 26.716 21.208C26.716 19.9037 26.2065 18.6769 25.2813 17.7517C24.3561 16.8224 23.1334 16.317 21.825 16.317Z" fill="#393939"/>
</svg>
