<svg width="38" height="38" viewBox="0 0 38 38" fill="none" xmlns="http://www.w3.org/2000/svg">
<path fill-rule="evenodd" clip-rule="evenodd" d="M19 2.375C15.5356 2.375 12.2131 3.75122 9.76342 6.20092C7.31372 8.65061 5.9375 11.9731 5.9375 15.4375V17.8125C5.9375 19.0665 6.44813 20.2706 6.98963 21.1992C7.53825 22.1469 8.1985 22.9401 8.65925 23.4032L12.0246 26.7663L13.395 30.875H24.605L25.9754 26.7663L29.3407 23.4032C29.8015 22.9401 30.4618 22.1445 31.0104 21.1992C31.5519 20.2706 32.0625 19.0665 32.0625 17.8125V15.4375C32.0625 11.9731 30.6863 8.65061 28.2366 6.20092C25.7869 3.75122 22.4644 2.375 19 2.375ZM22.2157 12.7157L20.5343 11.0343L16.1334 15.4375L18.5084 17.8125L15.7843 20.5343L17.4657 22.2157L21.8666 17.8125L19.4916 15.4375L22.2157 12.7157Z" fill="#0C47A0"/>
<path d="M23.75 35.625V33.25H14.25V35.625H23.75Z" fill="#0C47A0"/>
</svg>
