<svg width="24" height="25" viewBox="0 0 24 25" fill="none" xmlns="http://www.w3.org/2000/svg">
<path d="M12 5.87109C8.21285 5.87109 5.14258 8.94137 5.14258 12.7285C5.14258 13.3203 5.21744 13.8946 5.3584 14.4424H0.123047C0.04298 13.8826 0 13.3105 0 12.7285C9.17402e-05 6.10114 5.37262 0.728607 12 0.728516V5.87109Z" fill="#0C47A0"/>
<path d="M12.3098 0.7323C18.794 0.896722 24.0002 6.20461 24.0002 12.7284C24.0002 19.3558 18.6276 24.7282 12.0002 24.7284C5.95508 24.7283 0.954426 20.2583 0.122314 14.4432H5.35864C6.1201 17.4006 8.80524 19.5858 12.0002 19.5858C15.7872 19.5856 18.8577 16.5154 18.8577 12.7284C18.8577 9.05963 15.9759 6.06348 12.3528 5.87976L12.0002 5.87097V0.728394L12.3098 0.7323Z" fill="white"/>
</svg>
