<svg width="13" height="18" viewBox="0 0 13 18" fill="none" xmlns="http://www.w3.org/2000/svg">
<path d="M12.5469 6.96193C12.5476 5.94007 12.2894 4.93469 11.7963 4.03966C11.3032 3.14464 10.5913 2.38917 9.72718 1.84381C8.86301 1.29845 7.87473 0.980982 6.85463 0.921053C5.83452 0.861125 4.81587 1.06069 3.89379 1.50112C2.97171 1.94154 2.17628 2.60846 1.58179 3.43959C0.987289 4.27072 0.613116 5.23895 0.494206 6.25387C0.375297 7.2688 0.515531 8.2973 0.901812 9.24334C1.28809 10.1894 1.90782 11.0221 2.70313 11.6637V17.0869C2.7032 17.1588 2.72166 17.2295 2.75673 17.2923C2.7918 17.355 2.84233 17.4078 2.90352 17.4455C2.96994 17.487 3.04669 17.5089 3.125 17.5088C3.1904 17.5088 3.25491 17.4937 3.31344 17.4645L6.5 15.8712L9.68727 17.4645C9.75157 17.4965 9.82296 17.5115 9.89469 17.5081C9.96641 17.5048 10.0361 17.4832 10.0971 17.4454C10.1582 17.4076 10.2086 17.3548 10.2435 17.2921C10.2785 17.2293 10.2968 17.1587 10.2969 17.0869V11.6637C10.9993 11.0979 11.566 10.3818 11.9554 9.56814C12.3448 8.7545 12.5469 7.86395 12.5469 6.96193ZM1.29688 6.96193C1.29688 5.93285 1.60203 4.92688 2.17376 4.07123C2.74549 3.21558 3.5581 2.54869 4.50885 2.15487C5.4596 1.76106 6.50577 1.65802 7.51508 1.85879C8.52439 2.05955 9.45149 2.5551 10.1792 3.28277C10.9068 4.01044 11.4024 4.93755 11.6031 5.94686C11.8039 6.95616 11.7009 8.00234 11.3071 8.95308C10.9132 9.90383 10.2464 10.7164 9.3907 11.2882C8.53505 11.8599 7.52908 12.1651 6.5 12.1651C5.12056 12.1634 3.7981 11.6147 2.82268 10.6393C1.84727 9.66384 1.29855 8.34138 1.29688 6.96193ZM9.45312 16.4042L6.68773 15.0219C6.62922 14.9926 6.5647 14.9774 6.4993 14.9774C6.43389 14.9774 6.36938 14.9926 6.31086 15.0219L3.54688 16.4042V12.2354C4.44867 12.742 5.46564 13.0081 6.5 13.0081C7.53436 13.0081 8.55133 12.742 9.45312 12.2354V16.4042ZM6.5 10.7588C7.25095 10.7588 7.98504 10.5361 8.60943 10.1189C9.23382 9.70172 9.72048 9.10872 10.0079 8.41494C10.2952 7.72115 10.3704 6.95772 10.2239 6.2212C10.0774 5.48468 9.7158 4.80814 9.1848 4.27714C8.65379 3.74614 7.97726 3.38452 7.24073 3.23802C6.50421 3.09151 5.74079 3.1667 5.047 3.45408C4.35321 3.74146 3.76022 4.22811 3.34301 4.8525C2.92581 5.4769 2.70313 6.21098 2.70313 6.96193C2.70424 7.96859 3.10463 8.93369 3.81644 9.6455C4.52825 10.3573 5.49335 10.7577 6.5 10.7588ZM6.5 4.00881C7.08407 4.00881 7.65503 4.18201 8.14067 4.5065C8.62631 4.831 9.00482 5.29221 9.22833 5.83182C9.45185 6.37144 9.51033 6.96521 9.39638 7.53806C9.28243 8.11091 9.00118 8.63711 8.58818 9.05011C8.17517 9.46311 7.64898 9.74437 7.07613 9.85832C6.50328 9.97226 5.9095 9.91378 5.36989 9.69027C4.83028 9.46675 4.36906 9.08824 4.04457 8.6026C3.72007 8.11696 3.54688 7.54601 3.54688 6.96193C3.54688 6.17872 3.85801 5.42758 4.41183 4.87376C4.96564 4.31994 5.71678 4.00881 6.5 4.00881Z" fill="#393939"/>
</svg>
