<svg width="26" height="26" viewBox="0 0 26 26" fill="none" xmlns="http://www.w3.org/2000/svg">
<path fill-rule="evenodd" clip-rule="evenodd" d="M13.0581 0.941406H12.9419C12.1698 0.941406 11.5035 0.941406 10.9698 1.0135C10.3988 1.09024 9.85 1.2635 9.40581 1.70769C8.96163 2.15187 8.78837 2.70071 8.71163 3.27164C8.63953 3.80536 8.63953 4.47164 8.63953 5.24489V8.06699C8.35912 7.9693 8.06439 7.919 7.76744 7.91815H4.27907C3.93549 7.91815 3.59528 7.98582 3.27786 8.1173C2.96044 8.24878 2.67202 8.4415 2.42908 8.68444C2.18614 8.92738 1.99342 9.2158 1.86194 9.53322C1.73046 9.85065 1.66279 10.1909 1.66279 10.5344V24.1972H1.37209C1.1408 24.1972 0.918979 24.2891 0.75543 24.4526C0.591881 24.6162 0.5 24.838 0.5 25.0693C0.5 25.3006 0.591881 25.5224 0.75543 25.686C0.918979 25.8495 1.1408 25.9414 1.37209 25.9414H24.6279C24.8592 25.9414 25.081 25.8495 25.2446 25.686C25.4081 25.5224 25.5 25.3006 25.5 25.0693C25.5 24.838 25.4081 24.6162 25.2446 24.4526C25.081 24.2891 24.8592 24.1972 24.6279 24.1972H24.3372V16.3484C24.3372 15.6545 24.0616 14.989 23.5709 14.4984C23.0803 14.0077 22.4148 13.7321 21.7209 13.7321H18.2326C17.9256 13.7337 17.6349 13.7833 17.3605 13.8809V5.24489C17.3605 4.47164 17.3605 3.80536 17.2884 3.27164C17.2116 2.70071 17.0384 2.15187 16.5942 1.70769C16.15 1.2635 15.6023 1.09024 15.0302 1.0135C14.4965 0.941406 13.8302 0.941406 13.057 0.941406M22.5919 24.1972V16.3484C22.5919 16.1171 22.5 15.8953 22.3364 15.7317C22.1729 15.5682 21.9511 15.4763 21.7198 15.4763H18.2314C18.0001 15.4763 17.7783 15.5682 17.6147 15.7317C17.4512 15.8953 17.3593 16.1171 17.3593 16.3484V24.1972H22.5919ZM15.6151 24.1972V5.30187C15.6151 4.45536 15.6128 3.90652 15.5593 3.5042C15.5081 3.12629 15.4256 3.00769 15.3593 2.94141C15.293 2.87513 15.1744 2.79257 14.7965 2.74141C14.393 2.68792 13.8453 2.68559 12.9988 2.68559C12.1523 2.68559 11.6035 2.68792 11.2012 2.74141C10.8233 2.79257 10.7047 2.87513 10.6384 2.94141C10.5721 3.00769 10.4895 3.12629 10.4384 3.5042C10.3849 3.90769 10.3826 4.45536 10.3826 5.30187V24.1972H15.6151ZM8.63837 24.1972V10.5344C8.63837 10.3031 8.54649 10.0813 8.38294 9.91777C8.21939 9.75422 7.99757 9.66234 7.76628 9.66234H4.27791C4.04661 9.66234 3.82479 9.75422 3.66124 9.91777C3.49769 10.0813 3.40581 10.3031 3.40581 10.5344V24.1972H8.63837Z" fill="#0C47A0"/>
</svg>
