<svg width="29" height="29" viewBox="0 0 29 29" fill="none" xmlns="http://www.w3.org/2000/svg">
<path d="M14.5 2.47852L4 5.97852V16.4785C4 22.2781 8.70039 26.9785 14.5 26.9785C20.2996 26.9785 25 22.2781 25 16.4785V5.97852L14.5 2.47852ZM23.0312 16.4785C23.0312 21.1898 19.2113 25.0098 14.5 25.0098C9.78867 25.0098 5.96875 21.1898 5.96875 16.4785V7.45508L14.5 4.44727L23.0312 7.45508V16.4785Z" fill="#0C47A0"/>
<path d="M10.8489 13.7195C10.7577 13.6279 10.6493 13.5552 10.5298 13.5055C10.4104 13.4559 10.2824 13.4304 10.153 13.4304C10.0237 13.4304 9.89567 13.4559 9.77625 13.5055C9.65683 13.5552 9.54839 13.6279 9.45715 13.7195C9.36549 13.8108 9.29277 13.9192 9.24314 14.0386C9.19351 14.1581 9.16797 14.2861 9.16797 14.4154C9.16797 14.5448 9.19351 14.6728 9.24314 14.7922C9.29277 14.9116 9.36549 15.0201 9.45715 15.1113L12.9954 18.6496L13.0529 18.707C13.1392 18.7935 13.2417 18.8621 13.3545 18.9089C13.4673 18.9557 13.5883 18.9798 13.7105 18.9798C13.8326 18.9798 13.9536 18.9557 14.0664 18.9089C14.1793 18.8621 14.2818 18.7935 14.3681 18.707L20.4794 12.5957C20.5659 12.5094 20.6345 12.4069 20.6813 12.2941C20.7281 12.1812 20.7522 12.0603 20.7522 11.9381C20.7522 11.8159 20.7281 11.695 20.6813 11.5821C20.6345 11.4693 20.5659 11.3668 20.4794 11.2805L20.4029 11.2039C20.3166 11.1174 20.214 11.0488 20.1012 11.002C19.9884 10.9552 19.8674 10.9312 19.7452 10.9312C19.6231 10.9312 19.5021 10.9552 19.3893 11.002C19.2764 11.0488 19.1739 11.1174 19.0876 11.2039L13.7091 16.5797L10.8489 13.7195Z" fill="#0C47A0"/>
</svg>
