<svg width="39" height="39" viewBox="0 0 39 39" fill="none" xmlns="http://www.w3.org/2000/svg">
<path d="M15.5643 13.5894L19.2661 17.2912C19.8416 17.8631 20.62 18.1841 21.4313 18.1841C22.2427 18.1841 23.021 17.8631 23.5965 17.2912L34.0244 6.84753C34.0976 6.77964 34.1937 6.74192 34.2935 6.74192C34.3934 6.74192 34.4895 6.77964 34.5627 6.84753L36.2363 8.52111C36.3772 8.66361 36.5719 8.74278 36.7746 8.73644C36.8707 8.75861 36.9673 8.75861 37.0644 8.73644C37.2121 8.67614 37.3374 8.57131 37.4228 8.43652C37.5082 8.30174 37.5495 8.1437 37.541 7.98436V1.84103C37.541 1.63736 37.46 1.44204 37.316 1.29803C37.172 1.15402 36.9767 1.07311 36.773 1.07311H30.6297C30.4679 1.06103 30.3065 1.10049 30.1686 1.18582C30.0306 1.27115 29.9232 1.39798 29.8618 1.54811C29.8023 1.68723 29.7867 1.84116 29.817 1.98939C29.8472 2.13762 29.922 2.2731 30.0312 2.37778L31.8441 4.12894C31.8809 4.16345 31.9103 4.20514 31.9303 4.25144C31.9504 4.29773 31.9607 4.34766 31.9607 4.39811C31.9607 4.44857 31.9504 4.49849 31.9303 4.54479C31.9103 4.59108 31.8809 4.63277 31.8441 4.66728L27.2366 9.27478C23.101 -0.530805 9.90387 -2.18222 3.48187 6.2997C1.59138 8.79489 0.603864 11.8579 0.680952 14.9874C0.684119 15.5004 0.71473 16.0124 0.772785 16.5233C0.818271 16.8977 0.999953 17.2423 1.2832 17.4914C1.56644 17.7405 1.93144 17.8766 2.30862 17.8739H2.49229C2.69305 17.8511 2.88733 17.7889 3.06402 17.6908C3.2407 17.5928 3.3963 17.4609 3.52191 17.3026C3.64752 17.1444 3.74067 16.9629 3.79602 16.7685C3.85136 16.5742 3.86782 16.3709 3.84445 16.1702C3.82055 15.7504 3.82055 15.3296 3.84445 14.9099C4.11837 6.56886 13.3207 1.64944 20.4077 6.05586C22.4949 7.35389 24.0792 9.32235 24.9012 11.6387L21.7076 14.8814C21.6318 14.9503 21.533 14.9886 21.4305 14.9886C21.328 14.9886 21.2292 14.9503 21.1535 14.8814L17.4532 11.1479C16.8777 10.576 16.0993 10.255 15.288 10.255C14.4767 10.255 13.6983 10.576 13.1228 11.1479L1.14329 23.1115C0.856266 23.4006 0.695854 23.7919 0.697339 24.1993C0.698823 24.6067 0.862083 24.9968 1.1512 25.2839C1.44032 25.5709 1.83162 25.7313 2.23901 25.7298C2.6464 25.7283 3.03652 25.5651 3.32354 25.2759L4.21495 24.3861C5.54479 25.8194 7.15243 26.9671 8.93999 27.7592C10.7276 28.5513 12.6576 28.9713 14.6127 28.9936C17.6661 29.0004 20.6358 27.9961 23.0582 26.1373C23.1293 26.078 23.219 26.0456 23.3115 26.0456C23.4041 26.0456 23.4937 26.078 23.5649 26.1373L25.715 28.2874C25.7671 28.3381 25.8036 28.4026 25.8201 28.4733C25.8367 28.544 25.8326 28.618 25.8085 28.6864C25.6622 29.0958 25.6352 29.5382 25.7305 29.9622C25.8258 30.3863 26.0395 30.7746 26.3468 31.082L32.3049 37.0559C33.8945 38.8055 36.7825 38.1769 37.503 35.9239C37.6825 35.3614 37.6962 34.7591 37.5423 34.189C37.3884 33.619 37.0735 33.1054 36.6353 32.7097L30.6915 26.7057C30.2575 26.2771 29.6736 26.0346 29.0638 26.0296C28.7999 26.0296 28.5439 26.0755 28.2959 26.1674C28.2275 26.1917 28.1536 26.1961 28.0829 26.1798C28.0122 26.1635 27.9477 26.1273 27.8969 26.0755L25.7467 23.9254C25.6853 23.8552 25.6515 23.7652 25.6515 23.672C25.6515 23.5788 25.6853 23.4888 25.7467 23.4187C26.6846 22.1797 27.4112 20.794 27.8969 19.3179C27.9686 19.124 28.0004 18.9176 27.9905 18.7111C27.9805 18.5046 27.929 18.3022 27.839 18.1161C27.7489 17.93 27.6222 17.764 27.4665 17.628C27.3107 17.4921 27.1291 17.3889 26.9326 17.3248C26.736 17.2607 26.5286 17.237 26.3226 17.255C26.1167 17.273 25.9165 17.3324 25.734 17.4297C25.5516 17.5269 25.3906 17.66 25.2609 17.8209C25.1311 17.9819 25.0351 18.1674 24.9788 18.3663C24.2658 20.5411 22.8841 22.4351 21.0308 23.778C19.1775 25.121 16.9473 25.8441 14.6586 25.8444C13.115 25.8335 11.5901 25.5048 10.179 24.8788C8.76798 24.2529 7.50097 23.343 6.45695 22.2059L15.0576 13.5894C15.1278 13.528 15.2178 13.4942 15.311 13.4942C15.4041 13.4942 15.4942 13.528 15.5643 13.5894Z" fill="#0C47A0"/>
</svg>
