<svg width="14" height="18" viewBox="0 0 14 18" fill="none" xmlns="http://www.w3.org/2000/svg">
<path d="M1.74494 16.0424L4.11585 15.0736C3.90694 14.4506 3.72837 13.8165 3.58015 13.1713C3.43256 12.526 3.32491 11.8718 3.25719 11.2086L2.00177 12.0481C1.91616 12.1101 1.85163 12.181 1.80819 12.2609C1.76474 12.3407 1.74334 12.4295 1.74398 12.5273L1.74494 16.0424ZM5.07994 14.9624H8.91327C9.20077 14.1887 9.43237 13.3425 9.60806 12.4238C9.78376 11.505 9.8716 10.5483 9.8716 9.55356C9.8716 8.10712 9.65119 6.77535 9.21035 5.55827C8.76952 4.34119 8.0316 3.16563 6.9966 2.0316C5.9616 3.16691 5.22369 4.34278 4.78285 5.55923C4.34202 6.77567 4.1216 8.10744 4.1216 9.55452C4.1216 10.5499 4.20945 11.5066 4.38514 12.4247C4.56084 13.3428 4.79244 14.1887 5.07994 14.9624ZM6.9966 9.69156C6.59219 9.69156 6.25166 9.55292 5.97502 9.27564C5.69774 8.999 5.5591 8.65848 5.5591 8.25406C5.5591 7.84964 5.69774 7.50912 5.97502 7.23248C6.2523 6.95584 6.59283 6.8172 6.9966 6.81656C7.40038 6.81592 7.74091 6.95456 8.01819 7.23248C8.29546 7.50912 8.4341 7.84964 8.4341 8.25406C8.4341 8.65848 8.29546 8.999 8.01819 9.27564C7.74091 9.55228 7.40038 9.69092 6.9966 9.69156ZM12.2483 16.0424V12.5464C12.2483 12.448 12.2272 12.356 12.185 12.2704C12.1416 12.1842 12.0767 12.1101 11.9905 12.0481L10.736 11.2086C10.6683 11.8718 10.545 12.5905 10.3661 13.3649C10.1872 14.1392 10.0243 14.7148 9.87735 15.0918L12.2483 16.0424ZM6.9966 0.766602C8.31974 1.94088 9.28926 3.26402 9.90515 4.73602C10.5217 6.20802 10.8299 7.84773 10.8299 9.65514C10.8299 9.72862 10.8331 9.80528 10.8395 9.88514C10.8459 9.965 10.8427 10.0481 10.8299 10.1343L12.4926 11.2546C12.715 11.3932 12.8897 11.5785 13.0169 11.8104C13.144 12.0424 13.2076 12.2877 13.2076 12.5464V17.4502L9.39819 15.9207H4.57681L0.785645 17.4502V12.5282C0.785645 12.2701 0.846339 12.0248 0.967728 11.7922C1.08848 11.5603 1.26002 11.375 1.48235 11.2364L3.16327 10.1151V9.65514C3.16327 7.84709 3.47153 6.20738 4.08806 4.73602C4.70395 3.26402 5.67346 1.94088 6.9966 0.766602Z" fill="#393939"/>
</svg>
