<svg width="21" height="20" viewBox="0 0 21 20" fill="none" xmlns="http://www.w3.org/2000/svg">
<path d="M5.88594 7.36389L10.3688 5.7321L11.9995 1.25032C12.0369 1.14765 12.105 1.05897 12.1945 0.996301C12.284 0.933637 12.3906 0.900024 12.4999 0.900024C12.6091 0.900024 12.7158 0.933637 12.8053 0.996301C12.8948 1.05897 12.9628 1.14765 13.0002 1.25032L14.632 5.73318L19.1149 7.36389C19.2175 7.40128 19.3062 7.46934 19.3689 7.55885C19.4315 7.64836 19.4652 7.75498 19.4652 7.86425C19.4652 7.97351 19.4315 8.08013 19.3689 8.16964C19.3062 8.25915 19.2175 8.32722 19.1149 8.3646L14.6309 9.99639L13.0002 14.4792C12.9628 14.5819 12.8948 14.6706 12.8053 14.7333C12.7158 14.7959 12.6091 14.8295 12.4999 14.8295C12.3906 14.8295 12.284 14.7959 12.1945 14.7333C12.105 14.6706 12.0369 14.5819 11.9995 14.4792L10.3677 9.99532L5.88594 8.3646C5.78327 8.32722 5.69459 8.25915 5.63192 8.16964C5.56926 8.08013 5.53564 7.97351 5.53564 7.86425C5.53564 7.75498 5.56926 7.64836 5.63192 7.55885C5.69459 7.46934 5.78327 7.40128 5.88594 7.36389Z" stroke="#393939" stroke-width="1.5" stroke-linecap="round" stroke-linejoin="round"/>
<path d="M1.47247 15.0974L3.86333 14.2271L4.73304 11.8368C4.75298 11.7821 4.78928 11.7348 4.83702 11.7014C4.88476 11.668 4.94162 11.65 4.9999 11.65C5.05817 11.65 5.11504 11.668 5.16277 11.7014C5.21051 11.7348 5.24681 11.7821 5.26675 11.8368L6.13704 14.2277L8.5279 15.0974C8.58265 15.1174 8.62995 15.1537 8.66337 15.2014C8.69679 15.2491 8.71472 15.306 8.71472 15.3643C8.71472 15.4226 8.69679 15.4794 8.66337 15.5272C8.62995 15.5749 8.58265 15.6112 8.5279 15.6311L6.13647 16.5014L5.26675 18.8923C5.24681 18.947 5.21051 18.9943 5.16277 19.0278C5.11504 19.0612 5.05817 19.0791 4.9999 19.0791C4.94162 19.0791 4.88476 19.0612 4.83702 19.0278C4.78928 18.9943 4.75298 18.947 4.73304 18.8923L3.86275 16.5008L1.47247 15.6311C1.41771 15.6112 1.37041 15.5749 1.33699 15.5272C1.30357 15.4794 1.28564 15.4226 1.28564 15.3643C1.28564 15.306 1.30357 15.2491 1.33699 15.2014C1.37041 15.1537 1.41771 15.1174 1.47247 15.0974Z" stroke="#393939" stroke-linecap="round" stroke-linejoin="round"/>
</svg>
