<svg width="27" height="26" viewBox="0 0 27 26" fill="none" xmlns="http://www.w3.org/2000/svg">
<path d="M1.56251 13.0039H4.81251C5.04434 13.0039 5.23772 13.0814 5.39264 13.2363C5.54755 13.3912 5.62501 13.5846 5.62501 13.8164C5.62501 14.0483 5.54755 14.2416 5.39264 14.3965C5.23772 14.5515 5.04434 14.6289 4.81251 14.6289H1.56251C1.33176 14.6289 1.13839 14.5515 0.982386 14.3965C0.826386 14.2416 0.748928 14.0483 0.750011 13.8164C0.751095 13.5846 0.828553 13.3912 0.982386 13.2363C1.13622 13.0814 1.32959 13.0039 1.56251 13.0039ZM5.13751 22.0909L7.39951 19.8289C7.55876 19.6707 7.74564 19.5879 7.96014 19.5803C8.17464 19.5727 8.37126 19.6556 8.55001 19.8289C8.72984 20.0088 8.82084 20.2021 8.82301 20.409C8.82518 20.616 8.73743 20.8093 8.55976 20.9892L6.29614 23.2512C6.13797 23.4093 5.95001 23.4922 5.73226 23.4998C5.51559 23.5063 5.31734 23.4202 5.13751 23.2414C4.96418 23.0616 4.87643 22.8698 4.87426 22.6662C4.87209 22.4625 4.95984 22.2707 5.13751 22.0909ZM7.39951 7.80392L5.13751 5.54192C4.97934 5.38267 4.89647 5.19579 4.88889 4.98129C4.88239 4.76788 4.96526 4.57125 5.13751 4.39142C5.31734 4.21267 5.51072 4.12167 5.71764 4.11842C5.92455 4.11517 6.11793 4.20292 6.29776 4.38167L8.55976 6.64529C8.71793 6.80346 8.8008 6.99142 8.80839 7.20917C8.81597 7.42692 8.72984 7.62517 8.55001 7.80392C8.37126 7.97725 8.17951 8.06554 7.97476 8.06879C7.77109 8.07096 7.57934 7.98267 7.39951 7.80392ZM24.2686 25.2109L17.8434 18.7857L16.9691 21.5043C16.915 21.6516 16.8288 21.7675 16.7108 21.852C16.5938 21.9365 16.4638 21.9788 16.3208 21.9788C16.1778 21.9788 16.0537 21.9355 15.9486 21.8488C15.8403 21.76 15.7591 21.6419 15.7049 21.4945L13.2755 13.4995C13.2213 13.3045 13.2176 13.1301 13.2641 12.9763C13.3107 12.8225 13.4017 12.6773 13.5371 12.5408C13.6726 12.4043 13.8177 12.3133 13.9726 12.2678C14.1265 12.2212 14.3014 12.225 14.4975 12.2792L22.6973 14.741C22.8446 14.7952 22.9605 14.8765 23.045 14.9848C23.1295 15.091 23.1718 15.215 23.1718 15.3569C23.1718 15.4988 23.1366 15.6234 23.0661 15.7307C22.9957 15.8379 22.8863 15.9186 22.7379 15.9728L19.925 16.9917L26.0821 23.1472C26.3443 23.4093 26.4754 23.7159 26.4754 24.0669C26.4754 24.4179 26.3438 24.724 26.0805 24.985L25.8563 25.2093C25.6353 25.4303 25.3709 25.5408 25.0633 25.5408C24.7556 25.5408 24.4907 25.4319 24.2686 25.2109ZM13.9385 4.87892V1.62892C13.9385 1.39817 14.016 1.20479 14.1709 1.04879C14.3258 0.892792 14.5192 0.815334 14.751 0.816417C14.9828 0.817501 15.1757 0.894959 15.3295 1.04879C15.4855 1.20479 15.5635 1.39817 15.5635 1.62892V4.87892C15.5635 5.11075 15.4855 5.30413 15.3295 5.45904C15.1746 5.61396 14.9818 5.69142 14.751 5.69142C14.5192 5.69142 14.3258 5.61396 14.1709 5.45904C14.016 5.30413 13.9385 5.11075 13.9385 4.87892ZM20.9406 6.64529L23.2124 4.37354C23.3641 4.22079 23.5493 4.13738 23.7681 4.12329C23.987 4.10921 24.1852 4.19208 24.3629 4.37192C24.5362 4.54525 24.624 4.73538 24.6261 4.94229C24.6294 5.15029 24.5449 5.34367 24.3726 5.52242L22.1009 7.80392C21.9481 7.96208 21.7629 8.04496 21.5451 8.05254C21.3285 8.06013 21.1302 7.97725 20.9504 7.80392C20.7716 7.62517 20.6806 7.43179 20.6774 7.22379C20.6741 7.01579 20.7619 6.82296 20.9406 6.64529Z" fill="#0C47A0"/>
</svg>
